<svg width="496" height="164" viewBox="0 0 496 164" fill="none" xmlns="http://www.w3.org/2000/svg">
<path d="M147.446 136.69V27.7557H166.678V119.698H217.46V136.69H147.446Z" fill="black"/>
<path d="M221.824 46.4172V27.7557H240.455V46.4172H221.824ZM240.154 57.0376V136.69H222.125V57.0376H240.154Z" fill="black"/>
<path d="M279.401 138.359C257.316 138.359 244.695 119.546 244.695 96.9399C244.695 74.3336 257.316 55.5204 279.401 55.5204C289.618 55.5204 297.13 59.6168 302.088 65.5339V57.0376H320.118V164H302.088V128.346C297.13 134.263 289.618 138.359 279.401 138.359ZM302.539 94.6641C302.539 79.6438 294.125 71.4509 283.007 71.4509C269.936 71.4509 262.875 81.7679 262.875 96.9399C262.875 112.112 269.936 122.429 283.007 122.429C294.125 122.429 302.539 114.084 302.539 99.3674V94.6641Z" fill="black"/>
<path d="M391.834 57.0376V136.69H373.805V128.194C369.298 133.504 362.537 138.359 352.32 138.359C335.793 138.359 325.577 126.98 325.577 109.836V57.0376H343.606V105.891C343.606 115.601 347.813 121.822 357.579 121.822C365.692 121.822 373.805 115.753 373.805 104.374V57.0376H391.834Z" fill="black"/>
<path d="M397.223 46.4172V27.7557H415.853V46.4172H397.223ZM415.553 57.0376V136.69H397.523V57.0376H415.553Z" fill="black"/>
<path d="M455.284 138.359C433.198 138.359 420.577 119.546 420.577 96.9399C420.577 74.3336 433.198 55.5204 455.284 55.5204C465.5 55.5204 473.013 59.6168 477.971 65.5339V27.7557H496V136.69H477.971V128.346C473.013 134.263 465.5 138.359 455.284 138.359ZM478.421 94.6641C478.421 79.6438 470.008 71.4509 458.89 71.4509C445.818 71.4509 438.757 81.7679 438.757 96.9399C438.757 112.112 445.818 122.429 458.89 122.429C470.008 122.429 478.421 114.084 478.421 99.3674V94.6641Z" fill="black"/>
<path d="M56.5601 48.6716L56.5123 48.6995L73.5981 78.6067C75.8894 82.153 77.2263 86.3752 77.2263 90.9138C77.2263 95.2119 76.0329 99.2316 73.9582 102.659L108.772 91.3188L54.3117 0L41.1964 22.0501L56.5601 48.6716Z" fill="black"/>
<path d="M27.283 136.69L54.634 113.604C54.6113 113.604 54.5861 113.604 54.5635 113.604C42.0474 113.604 31.9032 103.446 31.9032 90.9163C31.9032 86.3904 33.2326 82.1783 35.5137 78.637L51.6755 50.2942L38.243 27.019L0 91.3213L27.2377 136.69H27.283Z" fill="black"/>
<path d="M66.1958 110.39L66.1908 110.392L35.0908 136.69H81.2422L104.633 98.1406L66.1958 110.39Z" fill="black"/>
</svg>
